<?xml version="1.0" encoding="UTF-8"?>
<svg id="b" data-name="Capa 2" xmlns="http://www.w3.org/2000/svg" viewBox="0 0 242.09 43.97">
  <g id="c" data-name="Capa 1">
    <g>
      <path d="M27.05,35.27c.12-.01,.2-.01,.2-.01,0,0,.02,0,.02,0,.07,0,1.75-.18,2.71-1.27,1.18-1.35,1.69-3.7,.61-4.83-.53-.56-1.17-.8-1.79-.68-.62,.12-1.16,.58-1.42,1.21-.06,.13,0,.29,.11,.37,.12,.08,.28,.08,.39-.02,.27-.24,.54-.34,.75-.28,.19,.05,.35,.24,.44,.51,.08,.25,.03,.58-.12,.81-.05,.08-.16,.21-.3,.22-.47,.05-1.15-.52-1.88-1.13-.72-.6-1.53-1.27-2.45-1.65-1.24-.51-4.65-1.26-7.04,.54-.01,0-.02,.01-.03,.02-.06,.04-1.43,1.1-1.74,2.22-.5,1.05-.56,2.03-.19,2.92-.3,.24-.46,.54-.46,.86,0,.72,.8,1.28,1.86,1.35-.11,.17-.17,.35-.17,.55,0,.76,.9,1.35,2.05,1.35,.84,0,1.54-.32,1.87-.78,.32,.46,1.03,.78,1.86,.78,1.15,0,2.05-.59,2.05-1.35,0-.19-.06-.38-.17-.55,.68-.04,1.27-.29,1.6-.67,.05,0,.1-.03,.15-.06,.24-.19,.7-.33,1.1-.42Zm1.69-1.1c-.3,.16-.6,.26-.86,.33-.01,0-.02,0-.03,0,.18-1.48-.65-2.92-1.01-3.45,.51,.41,.98,.74,1.44,.85,.29,.48,.58,1.24,.47,2.28Zm-2.57,.71c-.06-.21-.27-.6-.57-1.26-.46-1.03-1.47-2.4-3.68-3.07-2.94-.89-4.5-.46-5.25-.03,.05-.06,.1-.11,.15-.17,.04-.02,.08-.04,.11-.08,.22-.26,.46-.48,.71-.67,1.02-.36,2.58-.52,4.84,.16,3.01,.92,3.92,3.1,4.16,4,.08,.3,.14,.65,.15,.93-.02,0-.05,0-.07,.01-.06,0-.11,.03-.15,.07-.13,.04-.27,.08-.39,.13Zm-4.57-2.95c-.45,.11-.81,.31-1.05,.58-.35-.4-1.01-.67-1.78-.67-.27,0-.52,.03-.75,.09,.75-.26,1.71-.33,2.69-.19,.3,.04,.6,.11,.89,.19Zm-2.83,.54c.82,0,1.43,.38,1.43,.73,0,.18-.17,.38-.45,.52-.08,.04-.16,.07-.25,.1-.22,.07-.47,.11-.73,.11-.82,0-1.43-.38-1.43-.72s.59-.73,1.43-.73Zm.95,2.01c.07-.03,.16-.05,.25-.07,.16-.03,.33-.05,.49-.05,.84,0,1.43,.38,1.43,.73s-.59,.73-1.43,.73-1.43-.38-1.43-.73c0-.24,.27-.48,.69-.61Zm1.18-1.28c0-.34,.59-.73,1.43-.73,.14,0,.28,.01,.41,.03,.57,.09,1.01,.38,1.01,.67v.02c0,.23-.27,.48-.69,.61-.22,.07-.47,.11-.73,.11-.84,0-1.42-.38-1.42-.72Zm-4.36,.56c-.02-.13-.03-.25-.02-.38,.03-.3,.18-.57,.42-.82-.15,.19-.23,.4-.23,.63,0,.19,.06,.38,.17,.54-.12,0-.23,0-.34,.02Zm7.69-.05s.01,.02,.02,.03c-.01,0-.02,0-.04,0,0-.01,.01-.02,.02-.03Zm-8.75,1.38c0-.17,.14-.34,.38-.48,.18-.1,.39-.17,.64-.21,.13-.02,.27-.03,.41-.03,.84,0,1.43,.38,1.43,.73,0,.19-.17,.34-.28,.41-.28,.2-.7,.31-1.15,.31-.84,0-1.43-.38-1.43-.73Zm3.12,2.62c-.84,0-1.43-.35-1.43-.69s.61-.69,1.43-.69h.01s0-.03,.02-.03c0,0,.02-.02,.03-.01,.42,0,.81,.11,1.07,.29,.11,.08,.3,.23,.3,.42,0,.34-.59,.72-1.43,.72Zm3.73,0c-.84,0-1.43-.38-1.43-.73,0-.11,.06-.22,.17-.33,0,0,0,0,.01-.01,.26-.24,.74-.38,1.24-.38,.26,0,.51,.04,.73,.11,.42,.13,.7,.38,.7,.61,0,.34-.59,.73-1.43,.73Zm3.06-2.42c-.16,.25-.66,.53-1.36,.53-.24,0-.46-.03-.67-.09-.45-.13-.75-.38-.75-.63,0-.24,.27-.48,.69-.61,.22-.07,.48-.11,.74-.11,.17,0,.33,.02,.48,.05,.55,.11,.95,.39,.95,.68,0,.07-.02,.13-.06,.2Z" style="fill: #fff;"/>
      <path d="M43.86,27.78V10.69c0-.2-.06-.38-.23-.47-.17-.1-.36-.1-.53,0l-1.76,1V5.2c0-.2-.11-.38-.28-.48-.18-.1-.39-.09-.56,.02l-8.37,5.3c-.08-.01-.15,.02-.23,.04-1.45,.46-2.81,.69-4.03,.69h0c-4.05,0-5.37-2.57-5.42-2.67-.09-.18-.27-.35-.46-.35h0c-.2,0-.38,.16-.46,.34-.05,.11-1.37,2.64-5.42,2.64-1.22,0-2.58-.22-4.03-.68-.04-.01-.07-.01-.11-.01L3.56,4.73c-.17-.11-.43-.11-.61-.02-.18,.1-.33,.28-.33,.48v6.01l-1.73-1c-.17-.1-.41-.09-.58,0-.17,.1-.3,.28-.3,.47V27.78c0,.25,.04,4.34,3.44,7.81,3.04,3.11,7.81,4.68,14.11,4.68,.05,0,.12,0,.16-.02,2.39,.69,3.74,1.28,3.74,3.21,0,.29,.24,.52,.52,.52s.52-.23,.52-.52c0-1.94,1.36-2.52,3.79-3.22,.06,.02,.13,.04,.2,.04,6.3,0,11-1.58,14.04-4.68,3.4-3.47,3.34-7.56,3.34-7.81Zm-29.84-5.02c.74-.26,1-1.65,1-1.65,0,0,1.09,.71,1.9,.35,0,.33-.1,.88-.1,.88,0,0-.12,.41,.12,.86,.12,.23,.2,.75,.25,1.07-.39-.01-.8-.02-1.22-.02-.68,0-1.34,.01-1.95,.05-.02-.62,.03-.92,0-1.55Zm13.08-1.03h1.39c-.07,.7-.07,1.46,.14,2.51-.02,0-.04,0-.06,0l-1.64-.14c.21-1.01,.22-1.68,.17-2.38Zm11.35,2.29c-.96,.99-2.29,1.49-3.95,1.48-.41-1.16-.6-2.26-.66-3.28l6.4-3.53c0,.55-.04,3.5-1.8,5.33ZM3.81,18.69l6.31,3.47c-.05,1.04-.25,2.16-.66,3.33-1.61-.01-2.91-.5-3.85-1.48-1.76-1.82-1.81-4.79-1.8-5.33Zm38.94-7.06v10.63l-2.81,1.57c1.44-2.23,1.4-5.01,1.4-5.27v-6.09l1.41-.84Zm-2.62,.2l-4.78,2.71c-.28-.32-1.03-1.23-2.57-3.66l7.35-4.67v5.63Zm-12.39-.03c1.22,0,2.6-.21,4.02-.62,1.53,2.41,2.36,3.49,2.78,3.98-.74,1.18-2.76,5.05-1.24,10.1-.78-.67-2.23-.92-4-.99-.24-1.1-.22-1.83-.15-2.53h2.64c.29,0,.19-.48,.19-.87v-2.44c0-1.87-.99-1.97-.99-1.97,0,0-.64-.09-.95-.97-.32-.87-.83-1.58-1.61-1.67-.76-.09-2,.53-2.97,1.06-.59,.33-.63,.76-.71,1.39-.2,1.53-.79,1.46-.79,1.46-.29,0-.52,.32-.52,.7v2.44c0,.39,.23,.87,.52,.87h2.48c.06,.7-.06,1.41-.33,2.55-1.75,.09-3.07,.38-3.97,1.11V9.73c1.01,.92,2.73,2.06,5.62,2.06Zm-6.63-1.66v14.95c-.7-.48-1.85-.69-3.22-.78-.14-.75-.13-2.51,.06-3.01,1.12-.25,1.18-1.39,1.23-2.36,.04-.72-.23-3.22-.23-3.22,.11-.07,.6-.2,.69-.24,.15-.02,.29-.08,.35-.24,.05-.18,.11-.45,.03-.55-.08-.11-.63-.16-.73-.35-.26-.28-.51-.46-.76-.43-.34,.02-.68,.02-.88,.38-.31-.22-.63,.07-.96-.03,0,0-.1,1.15,1.14,1.03l.13,3.07s.09,.62-.79,.45c-.65-.13-2.22-.73-2.98-.51-.57,.16-1.19,.45-1.55,1.64-.36,1.19,.23,.79,.23,.79l.61-.42s.45,1.04-.06,1.63c-.41,.47-.23,.82-.23,.82,0,0,.18,1.07,.15,1.61-1.15,.12-2.09,.35-2.7,.81,1.47-5-.54-8.84-1.28-10.01,.42-.49,1.22-1.57,2.75-3.98,1.41,.41,2.73,.62,3.94,.62,2.47,0,4.04-.84,5.05-1.66ZM3.82,6.2l7.31,4.63c-1.51,2.37-2.24,3.31-2.54,3.67l-4.76-2.67V6.2Zm-1.21,6.27v6.09c0,.26-.09,3.04,1.35,5.27l-2.86-1.57V11.63l1.51,.84ZM1.43,29.49l7.03,3.87s0,0,.01,0c.59,1.77,1.92,3.15,3.8,4.6,.52,.4,1.09,.73,1.66,1-4.18-.49-7.42-1.87-9.64-4.13-1.82-1.85-2.56-3.93-2.87-5.35Zm20.55,11.97c-.85-1.33-2.61-1.83-4.45-2.35-1.61-.45-3.27-.97-4.63-2.01-3.48-2.68-4.76-4.91-2.87-10.24h23.89c1.89,5.33,.61,7.57-2.87,10.24-1.35,1.04-3.02,1.53-4.63,1.99-1.84,.52-3.6,1.04-4.45,2.37Zm17.8-6.64c-2.24,2.29-5.53,3.69-9.79,4.16,.59-.28,1.16-.6,1.7-1.01,1.87-1.44,3.19-2.81,3.79-4.56,.04-.01,.08-.03,.12-.05l7.03-3.88c-.3,1.41-1.04,3.48-2.86,5.33Z" style="fill: #fff;"/>
      <path d="M21.92,7.36c3.2-.03,5.72-1.64,5.72-3.68S25.13,.03,21.92,0c-3.21,.03-5.72,1.64-5.72,3.68,0,2.04,2.5,3.65,5.72,3.68Zm0-5.95c1.66,0,2.83,.64,2.83,1.49,0,.61-.66,1.15-1.69,1.38-.98,.32-.61,.66-1.12,.99,0,0-.01,0-.01,0,0,0,0,0,0,0-.51-.33-.14-.67-1.11-.99-1.03-.23-1.7-.78-1.7-1.38,0-.85,1.21-1.49,2.82-1.49Z" style="fill: #fff;"/>
    </g>
  </g>
  <g id="d" data-name="Capa 3">
    <g>
      <path d="M80.26,18.82V5.65h5.37c1.16,0,2.15,.19,2.97,.56s1.46,.92,1.91,1.62,.67,1.54,.67,2.5-.22,1.8-.67,2.5-1.08,1.24-1.91,1.62-1.82,.56-2.97,.56h-4.03l1.08-1.15v4.95h-2.42Zm2.42-4.68l-1.08-1.18h3.91c1.07,0,1.87-.23,2.41-.69,.54-.46,.81-1.1,.81-1.93s-.27-1.49-.81-1.94-1.34-.68-2.41-.68h-3.91l1.08-1.2v7.62Z" style="fill: #fff;"/>
      <path d="M97.82,18.95c-1.02,0-1.93-.22-2.72-.67-.79-.44-1.42-1.06-1.88-1.83-.46-.78-.69-1.66-.69-2.65s.23-1.89,.69-2.66c.46-.77,1.09-1.38,1.88-1.81s1.7-.66,2.72-.66,1.95,.22,2.75,.66,1.43,1.04,1.88,1.8,.68,1.65,.68,2.67-.23,1.87-.68,2.65-1.08,1.39-1.88,1.83c-.8,.45-1.72,.67-2.75,.67Zm0-2.01c.57,0,1.08-.13,1.53-.38,.45-.25,.8-.61,1.05-1.09,.25-.48,.38-1.03,.38-1.67s-.13-1.21-.38-1.68c-.25-.47-.61-.83-1.05-1.08s-.95-.38-1.51-.38-1.08,.12-1.52,.38-.79,.61-1.05,1.08c-.26,.47-.39,1.03-.39,1.68s.13,1.2,.39,1.67c.26,.48,.61,.84,1.05,1.09,.44,.25,.94,.38,1.5,.38Z" style="fill: #fff;"/>
      <path d="M105.37,18.82V8.77h2.22v2.76l-.26-.81c.3-.68,.77-1.19,1.41-1.54s1.44-.53,2.4-.53v2.24c-.1-.03-.19-.04-.28-.05-.09,0-.17,0-.26,0-.88,0-1.58,.26-2.11,.78-.52,.52-.78,1.29-.78,2.32v4.87h-2.33Z" style="fill: #fff;"/>
      <path d="M112.15,10.73v-1.88h6.63v1.88h-6.63Zm5.07,8.22c-1.09,0-1.94-.29-2.54-.86-.6-.57-.89-1.41-.89-2.53V6.56h2.33V15.51c0,.48,.12,.85,.36,1.11,.24,.26,.58,.4,1.02,.4,.52,0,.96-.14,1.3-.41l.65,1.67c-.27,.23-.61,.39-1.01,.51-.4,.11-.81,.17-1.23,.17Z" style="fill: #fff;"/>
      <path d="M124.37,18.95c-.75,0-1.4-.13-1.96-.39-.56-.26-.99-.61-1.29-1.07-.3-.46-.46-.97-.46-1.55s.13-1.07,.4-1.52c.27-.45,.71-.81,1.31-1.07,.61-.26,1.42-.39,2.42-.39h2.89v1.56h-2.72c-.79,0-1.33,.13-1.6,.39-.27,.26-.41,.57-.41,.95,0,.43,.17,.76,.5,1.02,.34,.25,.8,.38,1.4,.38s1.08-.13,1.54-.4c.45-.26,.78-.65,.98-1.17l.39,1.41c-.22,.59-.62,1.05-1.2,1.37-.58,.33-1.31,.49-2.19,.49Zm3.13-.13v-2.03l-.13-.43v-3.55c0-.69-.21-1.23-.62-1.61-.41-.38-1.03-.57-1.86-.57-.56,0-1.11,.09-1.65,.26-.54,.18-1,.42-1.37,.73l-.91-1.71c.53-.41,1.17-.72,1.91-.93,.74-.21,1.51-.31,2.3-.31,1.44,0,2.56,.35,3.34,1.04,.79,.7,1.18,1.77,1.18,3.22v5.89h-2.2Z" style="fill: #fff;"/>
      <path d="M132.68,18.82V4.86h2.33v13.95h-2.33Z" style="fill: #fff;"/>
      <path d="M147.43,18.95c-.96,0-1.82-.22-2.58-.65-.76-.43-1.36-1.03-1.8-1.8s-.65-1.67-.65-2.71,.22-1.94,.65-2.71,1.03-1.36,1.8-1.79c.76-.43,1.62-.64,2.58-.64,.83,0,1.58,.18,2.24,.55,.66,.37,1.18,.93,1.57,1.68,.38,.75,.58,1.72,.58,2.9s-.19,2.13-.56,2.89c-.37,.76-.89,1.33-1.55,1.7-.66,.38-1.42,.56-2.27,.56Zm.28-2.01c.56,0,1.06-.13,1.5-.38,.44-.25,.79-.61,1.06-1.09,.27-.48,.4-1.03,.4-1.67s-.13-1.21-.4-1.68c-.27-.47-.62-.83-1.06-1.08s-.94-.38-1.5-.38-1.06,.12-1.5,.38c-.44,.25-.8,.61-1.06,1.08-.27,.47-.4,1.03-.4,1.68s.13,1.2,.4,1.67c.27,.48,.62,.84,1.06,1.09,.44,.25,.94,.38,1.5,.38Zm3.02,1.88v-2.37l.09-2.67-.19-2.67V4.86h2.31v13.95h-2.22Z" style="fill: #fff;"/>
      <path d="M160.69,18.95c-1.11,0-2.07-.22-2.9-.67-.83-.44-1.47-1.06-1.92-1.83-.45-.78-.68-1.66-.68-2.65s.22-1.89,.66-2.66c.44-.77,1.05-1.38,1.83-1.81s1.66-.66,2.66-.66,1.83,.21,2.59,.64c.76,.43,1.35,1.03,1.79,1.81,.43,.78,.65,1.69,.65,2.75,0,.1,0,.21,0,.34,0,.13-.02,.25-.03,.36h-8.29v-1.56h7.06l-.91,.49c.01-.58-.11-1.08-.35-1.52-.25-.44-.59-.78-1.02-1.03-.43-.25-.92-.38-1.48-.38s-1.07,.13-1.5,.38c-.43,.25-.76,.6-1.01,1.04-.24,.45-.36,.97-.36,1.57v.38c0,.6,.14,1.13,.41,1.6,.27,.46,.66,.82,1.16,1.07s1.07,.38,1.71,.38c.56,0,1.06-.09,1.51-.26,.45-.17,.84-.45,1.19-.83l1.25,1.45c-.45,.53-1.01,.93-1.69,1.21-.68,.28-1.45,.42-2.32,.42Z" style="fill: #fff;"/>
    </g>
    <g>
      <path d="M83.39,38.33v-11.98h-4.7v-3.46h13.71v3.46h-4.68v11.98h-4.33Z" style="fill: #fff;"/>
      <path d="M93.58,38.33v-11.96h3.96v3.49l-.59-.99c.35-.9,.92-1.57,1.71-2.02,.79-.45,1.74-.67,2.86-.67v3.77c-.19-.03-.35-.05-.49-.05-.14,0-.29-.01-.45-.01-.85,0-1.53,.23-2.06,.69s-.79,1.22-.79,2.26v5.49h-4.15Z" style="fill: #fff;"/>
      <path d="M106.24,38.52c-.95,0-1.75-.16-2.4-.49-.66-.32-1.16-.76-1.5-1.32-.34-.56-.51-1.18-.51-1.88,0-.74,.19-1.37,.56-1.91,.37-.54,.94-.95,1.72-1.24s1.77-.43,3-.43h2.8v2.18h-2.23c-.67,0-1.14,.11-1.41,.33-.27,.22-.4,.51-.4,.88s.14,.66,.42,.88,.66,.33,1.14,.33c.45,0,.86-.11,1.24-.34,.37-.23,.65-.58,.82-1.05l.57,1.54c-.22,.82-.65,1.44-1.28,1.86-.63,.42-1.47,.63-2.5,.63Zm3.5-.2v-2.23l-.28-.55v-4.1c0-.66-.2-1.17-.6-1.53-.4-.36-1.04-.54-1.91-.54-.57,0-1.14,.09-1.73,.28-.58,.18-1.08,.44-1.49,.76l-1.4-2.85c.67-.44,1.48-.78,2.42-1.03,.94-.24,1.88-.36,2.81-.36,1.92,0,3.41,.44,4.47,1.33,1.06,.89,1.58,2.28,1.58,4.18v6.64h-3.87Z" style="fill: #fff;"/>
      <path d="M123.94,26.17c.92,0,1.75,.19,2.49,.56,.74,.38,1.33,.95,1.76,1.73,.43,.78,.65,1.79,.65,3.02v6.84h-4.15v-6.15c0-.85-.17-1.47-.51-1.86-.34-.39-.82-.58-1.43-.58-.44,0-.84,.1-1.2,.3-.36,.2-.65,.5-.85,.92-.2,.41-.31,.95-.31,1.61v5.78h-4.15v-11.96h3.96v3.4l-.77-.99c.45-.87,1.07-1.52,1.86-1.95s1.68-.65,2.67-.65Z" style="fill: #fff;"/>
      <path d="M135.75,38.52c-1.01,0-1.99-.12-2.94-.35-.96-.24-1.72-.53-2.31-.88l1.25-2.87c.55,.34,1.2,.61,1.95,.8,.74,.2,1.47,.3,2.19,.3s1.18-.07,1.45-.22c.27-.15,.41-.34,.41-.6,0-.23-.13-.41-.38-.52-.26-.11-.59-.2-1.01-.25s-.87-.12-1.37-.2c-.5-.07-1-.17-1.5-.3s-.96-.32-1.38-.57c-.42-.26-.75-.61-1-1.05-.25-.44-.37-1-.37-1.68,0-.76,.22-1.45,.67-2.04s1.1-1.07,1.96-1.41c.86-.34,1.91-.52,3.15-.52,.83,0,1.67,.08,2.53,.25,.85,.17,1.57,.42,2.15,.76l-1.25,2.85c-.58-.34-1.17-.57-1.75-.7-.58-.12-1.14-.19-1.66-.19-.7,0-1.19,.08-1.48,.24-.28,.16-.43,.36-.43,.59s.12,.42,.37,.54,.58,.22,1,.29c.42,.07,.87,.13,1.37,.2,.5,.07,1,.17,1.5,.3,.5,.13,.96,.33,1.38,.58,.42,.26,.75,.6,1,1.04,.25,.43,.37,.99,.37,1.67,0,.74-.22,1.4-.67,1.98-.44,.59-1.1,1.06-1.97,1.41-.87,.35-1.94,.53-3.22,.53Z" style="fill: #fff;"/>
      <path d="M143.4,42.61V26.37h3.96v2.03l-.02,3.95,.22,3.97v6.29h-4.15Zm7.46-4.08c-1.01,0-1.87-.22-2.58-.67-.71-.45-1.26-1.12-1.63-2.03-.37-.9-.56-2.06-.56-3.47s.18-2.59,.53-3.5,.88-1.58,1.58-2.02,1.59-.66,2.66-.66,2.06,.25,2.94,.76c.88,.51,1.58,1.22,2.1,2.14,.52,.92,.78,2.01,.78,3.28s-.26,2.36-.78,3.29c-.52,.93-1.22,1.64-2.1,2.14-.88,.5-1.86,.75-2.94,.75Zm-.87-3.33c.47,0,.88-.11,1.26-.33,.37-.22,.67-.54,.9-.97,.23-.43,.34-.94,.34-1.54s-.11-1.12-.34-1.54c-.23-.43-.52-.75-.9-.97s-.79-.33-1.26-.33-.89,.11-1.26,.33c-.37,.22-.67,.54-.9,.97-.23,.43-.34,.94-.34,1.54s.11,1.12,.34,1.54c.23,.43,.53,.75,.9,.97,.37,.22,.79,.33,1.26,.33Z" style="fill: #fff;"/>
      <path d="M162.07,38.52c-.95,0-1.75-.16-2.41-.49-.66-.32-1.16-.76-1.5-1.32-.34-.56-.51-1.18-.51-1.88,0-.74,.19-1.37,.56-1.91,.37-.54,.94-.95,1.72-1.24s1.77-.43,3-.43h2.8v2.18h-2.23c-.67,0-1.14,.11-1.41,.33s-.4,.51-.4,.88,.14,.66,.42,.88c.28,.22,.66,.33,1.14,.33,.45,0,.86-.11,1.24-.34,.37-.23,.64-.58,.82-1.05l.57,1.54c-.22,.82-.64,1.44-1.28,1.86-.63,.42-1.47,.63-2.5,.63Zm3.5-.2v-2.23l-.28-.55v-4.1c0-.66-.2-1.17-.6-1.53-.4-.36-1.04-.54-1.91-.54-.57,0-1.14,.09-1.73,.28-.58,.18-1.08,.44-1.49,.76l-1.4-2.85c.67-.44,1.48-.78,2.42-1.03,.94-.24,1.88-.36,2.81-.36,1.92,0,3.41,.44,4.47,1.33,1.06,.89,1.58,2.28,1.58,4.18v6.64h-3.87Z" style="fill: #fff;"/>
      <path d="M172.07,38.33v-11.96h3.96v3.49l-.59-.99c.35-.9,.92-1.57,1.71-2.02,.79-.45,1.74-.67,2.86-.67v3.77c-.19-.03-.35-.05-.49-.05s-.29-.01-.45-.01c-.85,0-1.53,.23-2.06,.69-.52,.46-.79,1.22-.79,2.26v5.49h-4.15Z" style="fill: #fff;"/>
      <path d="M187.81,38.52c-1.4,0-2.62-.27-3.66-.8s-1.85-1.27-2.43-2.21c-.58-.93-.86-2-.86-3.19s.28-2.25,.84-3.19c.56-.93,1.34-1.66,2.33-2.18,.99-.52,2.11-.78,3.34-.78,1.17,0,2.23,.24,3.19,.72s1.73,1.18,2.3,2.11,.85,2.05,.85,3.38c0,.15,0,.32-.02,.51-.01,.19-.03,.37-.04,.53h-9.38v-2.21h7.17l-1.57,.62c.01-.54-.08-1.01-.29-1.41-.21-.4-.5-.71-.87-.93-.37-.22-.81-.33-1.3-.33s-.93,.11-1.3,.33c-.37,.22-.66,.53-.86,.94s-.31,.88-.31,1.42v.64c0,.59,.12,1.1,.36,1.52s.59,.75,1.04,.98c.45,.23,.99,.34,1.62,.34,.58,0,1.08-.08,1.5-.25s.83-.43,1.24-.78l2.19,2.29c-.57,.63-1.27,1.11-2.1,1.45-.83,.33-1.81,.5-2.95,.5Z" style="fill: #fff;"/>
      <path d="M203.35,26.17c.92,0,1.75,.19,2.49,.56s1.33,.95,1.76,1.73,.65,1.79,.65,3.02v6.84h-4.15v-6.15c0-.85-.17-1.47-.51-1.86-.34-.39-.82-.58-1.43-.58-.44,0-.84,.1-1.2,.3-.36,.2-.65,.5-.85,.92s-.31,.95-.31,1.61v5.78h-4.15v-11.96h3.96v3.4l-.77-.99c.45-.87,1.07-1.52,1.86-1.95s1.68-.65,2.67-.65Z" style="fill: #fff;"/>
      <path d="M217.06,38.52c-1.31,0-2.48-.26-3.51-.79s-1.83-1.26-2.42-2.19c-.58-.93-.88-2-.88-3.21s.29-2.27,.88-3.2c.58-.93,1.39-1.65,2.42-2.17,1.03-.52,2.2-.78,3.51-.78s2.5,.29,3.48,.86c.98,.57,1.67,1.38,2.08,2.43l-3.21,1.65c-.28-.56-.62-.97-1.03-1.22-.41-.26-.85-.39-1.33-.39s-.92,.11-1.31,.33-.7,.54-.93,.96c-.23,.42-.34,.93-.34,1.53s.11,1.14,.34,1.57c.23,.43,.54,.75,.93,.97,.39,.22,.83,.33,1.31,.33s.93-.13,1.33-.39c.41-.26,.75-.67,1.03-1.22l3.21,1.66c-.41,1.04-1.1,1.85-2.08,2.43-.98,.57-2.14,.86-3.48,.86Z" style="fill: #fff;"/>
      <path d="M226.22,25.05c-.76,0-1.37-.21-1.84-.64-.47-.43-.7-.96-.7-1.59s.23-1.16,.7-1.59c.47-.43,1.08-.64,1.84-.64s1.37,.2,1.84,.61,.7,.92,.7,1.56-.23,1.21-.69,1.64c-.46,.43-1.07,.65-1.85,.65Zm-2.08,13.28v-11.96h4.15v11.96h-4.15Z" style="fill: #fff;"/>
      <path d="M234.73,38.52c-.95,0-1.75-.16-2.41-.49-.66-.32-1.16-.76-1.5-1.32-.34-.56-.51-1.18-.51-1.88,0-.74,.19-1.37,.56-1.91,.37-.54,.94-.95,1.72-1.24s1.77-.43,3-.43h2.8v2.18h-2.23c-.67,0-1.14,.11-1.41,.33s-.4,.51-.4,.88,.14,.66,.42,.88c.28,.22,.66,.33,1.14,.33,.45,0,.86-.11,1.24-.34,.37-.23,.64-.58,.82-1.05l.57,1.54c-.22,.82-.64,1.44-1.28,1.86-.63,.42-1.47,.63-2.5,.63Zm3.5-.2v-2.23l-.28-.55v-4.1c0-.66-.2-1.17-.6-1.53-.4-.36-1.04-.54-1.91-.54-.57,0-1.14,.09-1.73,.28-.58,.18-1.08,.44-1.49,.76l-1.4-2.85c.67-.44,1.48-.78,2.42-1.03,.94-.24,1.88-.36,2.81-.36,1.92,0,3.41,.44,4.47,1.33,1.06,.89,1.58,2.28,1.58,4.18v6.64h-3.87Z" style="fill: #fff;"/>
    </g>
  </g>
</svg>